<svg width="36" height="36" viewBox="0 0 36 36" fill="none" xmlns="http://www.w3.org/2000/svg">
<path d="M11.0982 18.5533C10.5339 17.9468 9.58477 17.9126 8.97825 18.4769C8.37174 19.0412 8.33751 19.9903 8.90181 20.5968L11.0982 18.5533ZM14.8485 24.7863L13.7503 25.8081C14.0341 26.1131 14.4319 26.2863 14.8485 26.2863C15.2651 26.2863 15.6629 26.1131 15.9467 25.8081L14.8485 24.7863ZM27.0982 13.8222C27.6625 13.2157 27.6283 12.2666 27.0217 11.7023C26.4152 11.138 25.4661 11.1722 24.9018 11.7787L27.0982 13.8222ZM8.90181 20.5968L13.7503 25.8081L15.9467 23.7646L11.0982 18.5533L8.90181 20.5968ZM15.9467 25.8081L27.0982 13.8222L24.9018 11.7787L13.7503 23.7646L15.9467 25.8081ZM32.5 18.1275C32.5 26.1236 26.0098 32.6086 18 32.6086V35.6086C27.6633 35.6086 35.5 27.7838 35.5 18.1275H32.5ZM18 32.6086C9.9902 32.6086 3.5 26.1236 3.5 18.1275H0.5C0.5 27.7838 8.33669 35.6086 18 35.6086V32.6086ZM3.5 18.1275C3.5 10.1315 9.9902 3.64642 18 3.64642V0.646423C8.33669 0.646423 0.5 8.47131 0.5 18.1275H3.5ZM18 3.64642C26.0098 3.64642 32.5 10.1315 32.5 18.1275H35.5C35.5 8.47131 27.6633 0.646423 18 0.646423V3.64642Z" fill="#0FC100"/>
</svg>
