<svg width="36" height="26" viewBox="0 0 36 26" fill="none" xmlns="http://www.w3.org/2000/svg">
<path fill-rule="evenodd" clip-rule="evenodd" d="M27.5244 4.27826L26.127 4.30463L29.2178 14.4882C28.793 14.5937 28.3887 14.7197 28.0107 14.8662C28.3828 14.7255 28.7783 14.6025 29.1943 14.497C31.9014 13.8847 34.1426 14.7724 36 16.8847L33.6855 17.9746L23.8594 22.6093C23.7803 22.0087 23.748 21.4404 23.7598 20.9101C23.7568 20.9863 23.751 21.0654 23.751 21.1445H12.4746C12.4717 23.5615 10.5088 25.5214 8.08887 25.5214C5.66894 25.5214 3.70898 23.5615 3.70312 21.1445H0.0117149C-0.246098 16.1259 3.24609 12.2675 7.39453 11.8984H5.15918C4.71679 11.8984 4.35351 11.5351 4.35351 11.0927V10.2079C4.35351 9.77143 4.71094 9.414 5.14746 9.414H16.8164V11.9013V13.0234C14.499 14.8456 14.1475 18.2382 16.2627 19.8378H21.4512C21.5391 17.1074 23.1006 14.9013 25.6904 13.0615L24.1436 8.29779C23.5078 6.8183 23.9268 5.69623 24.8555 4.90814C24.5654 3.97357 24.3574 3.17377 24.4189 2.52338L22.7988 2.85736C22.2715 2.96576 22.1367 3.15619 21.9668 2.64643C21.9375 2.55854 21.9141 2.47357 21.8994 2.38568C21.7676 1.69135 21.8496 1.73822 22.4121 1.62689L24.1406 1.29291H24.6621L25.2979 0.935489C25.6787 0.718692 26.0684 0.586856 26.4727 0.537051L27.0293 0.501895C27.5977 0.501895 28.2393 0.343692 28.5703 0.868106C28.5762 0.876895 28.5791 0.909121 28.582 0.955996C28.8135 1.0351 29.0127 1.20795 29.165 1.44818C29.3496 1.73822 29.4639 2.1308 29.4639 2.56147C29.4639 2.9892 29.3496 3.38471 29.165 3.67475C28.96 3.99994 28.6611 4.20209 28.3213 4.21381C28.125 4.3515 27.8115 4.2724 27.5244 4.27826ZM33.6768 17.9804L29.7686 19.832L31.0371 19.249C31.9102 19.4335 32.5635 20.2099 32.5635 21.1386C32.5635 22.205 31.6992 23.0693 30.6328 23.0693C29.5664 23.0693 28.7021 22.205 28.7021 21.1386C28.7021 20.8105 28.7842 20.4999 28.9307 20.2275L26.2646 21.4902C26.4434 23.746 28.333 25.5214 30.6357 25.5214C33.0586 25.5214 35.0215 23.5585 35.0215 21.1357C35.0186 19.8994 34.5029 18.7802 33.6768 17.9804ZM28.5732 1.71186C28.5557 2.27729 28.5176 3.00092 28.4912 3.49018C28.5381 3.44916 28.585 3.39643 28.626 3.32904C28.749 3.13568 28.8252 2.86322 28.8252 2.55854C28.8252 2.25092 28.749 1.98139 28.626 1.78803C28.6084 1.76166 28.5908 1.73529 28.5732 1.71186ZM10.0195 21.1474H6.1582C6.16113 22.2109 7.02539 23.0722 8.08887 23.0722C9.15234 23.0693 10.0166 22.208 10.0195 21.1474Z" fill="black"/>
</svg>
